<?xml version="1.0" encoding="UTF-8"?>
<svg id="Layer_1" data-name="Layer 1" xmlns="http://www.w3.org/2000/svg" viewBox="0 0 203.81 735.53">
  <defs>
    <style>
      .cls-1 {
        fill: #fff;
      }
    </style>
  </defs>
  <g id="RwIULS.tif">
    <g>
      <path class="cls-1" d="M203.29,0l.52,2.72-.48,732.08-2.26.73-200.46-.49-.61-1V1.47S1.03,0,1.03,0h202.26ZM49.91,5.5H6.02c-1.05,0-.73,3.09-.2,3.46s2.15-.48,3.09-.36c3.11.39,8.18,3.59,11.32,4.67,1.14.39,2.39.09,3.54.45,2.15.68,5.93,5.76,7.31,6.18,1.74.53,3.22-.59,4.64-.2.81.22,2.04,1.45,3.13,1.9,7.58,3.11,15.12,6.49,23.07,7.87,1.79.31,2.86-.25,4.91.57,2.31.92,7.96,8.35,10.21,10.76.86.91.87,2.51,3.27,2.71.66-1.46,2.65-3.06,2.21-4.66-2.14-2.75-3.79-5.84-5.93-8.59-7.51-9.65-18.03-16.2-26.67-24.75ZM74.91,8.19c-.82-.69-2.74-2.52-3.57-2.68-1.12-.21-7.14-.48-6.72,1.23,3.66,2.62,6.87,5.75,9.99,8.99,24.13,25.02,44.93,47.43,63.74,77.05,5.23,8.23,12.85,19.51,13.08,29.37.03,1.47.04,7.42-2.02,6.53l-14.82-10.17c-3.43-.43-1.58,1.96-1.68,3.61-.05.83-.69,5.25-1.25,5.33-2.79-.21-4.12-2.78-6.22-4.24-2.21-1.54-4.85-2.08-6.71-3.28-2.71-1.75-6.51-7.18-9.28-9.69-4.32-3.91-9.06-6.66-13.23-10.98-9.71-10.03-17.17-18.25-27.78-27.63-15.95-14.1-30.5-26.18-48.18-37.93-4.47-2.97-7.32-5.05-12.17-7.79-1.88-1.06-2.56-3.11-2.85,1.31-.58,8.79.3,18.42.25,27.28.51,1.66,6.15,5.06,7.93,6.57,43.36,36.61,71.5,70.88,102.87,117.78,1.35,2.02,9.41,14.33,10.92,14.03,2.66-3.18-1.79-4.6-2.99-7.49-.79-1.9-1.11-4.52-.3-6.44l-4.97-3.78-2.97-6.77c1.65-1.52,6.89,5.14,7.59,6.63.44.93.21,2.08.65,2.84.35.61,2.72,1.79,3.47,2.52,1.96,1.92,2.57,4.31,3.61,6.75l-1.74,1.99c.96,1.77,2.29,3.02,1.88,5.25-.22.21-3.12-.56-3,1.25.11.41,1.13.55,1.34.9,2.51,4.12,4.79,9.66,7.23,14.01,7.45,13.3,15.11,25.97,21.73,39.69,8.48,17.6,15.68,34.85,18.05,54.37.65,5.38-1.51,17.51-4.07,22.32-.98,1.84-2.8,3.49-4.75,4.24-.76.29-1.84-.07-2.62.38-.52.3-.68,1.47-1.85,2.14-.92.53-4.11,1.75-4.57.29v-1.62c1.31-.08,2.54-1.48,3.46-1.78,1.18-.39,3.7-.14,3.92-.33.15-.13.14-1.28.43-1.8,5.41-9.49,7.45-14.1,5.98-25.75-2.19-17.29-9.78-34.12-16.39-50.04-.94-1.62-3.15-1.53-3.37-1.87-.91-1.38,1.78-6.9-3.56-5.94,1.79-2.24.1-4.88-1.28-6.95-1.21-1.81-1.04-1.76-1.97-3.52-1.51-2.84-2.76-2.33-4.72-3.27-.6-.29-2.62-4.01-2.73-4.68-.26-1.56-.19-4.56-.44-6.23-.47-3.13-2.08-2.32-3.31-3.58-.69-.71-1.81-3.58-3.01-4.98-4.65-5.44-4.91-6.57-8.48-12.49-3.21-5.32-13.42-14.07-15.31-18.64-6.33-15.38-18.95-29.7-29.59-42.81-6.04-7.44-12.78-14.2-18.94-21.5-1.05-1.24-2.69-4.69-3.62-5.62-3.21-3.21-8.24-5.81-11.6-9.1-6.35-6.22-10.79-14.14-18.23-19.73-1.66-1.25-4.08-2.05-5.7-3.28-2.99-2.27-11.1-12.95-13.98-13.01-1.14.01-1.16.87-1.26,1.74-.57,4.82-.39,15.53,0,20.53.34,4.36.84,2.6,3.36,4.13,4.37,2.64,14.78,17.24,17.48,17.95,1.02.27,2.11-.05,3.11.39.41.18,5.48,5.55,6.3,6.43,13.06,14.01,28.49,33.48,39.31,49.31,5.69,8.32,9.22,17.71,15.03,25.92,3.59,5.08,8.53,9.87,11.61,15.35,2.06,3.66,3.03,7.85,4.87,11.61,1.31,2.66,4.3,6.18,5.31,8.68.8,1.98.05,4.14.7,6.29.5,1.64,2.66,3.75,3.41,5.58,3.59,8.72,3.17,17.73,2.79,26.73-.09,2.12-1.85,5.55-3.8,6.23-1.64.57-4.83.81-6.37-.08-1.4-.81-7.04-7.49-8.31-9.17-4.88-6.46-4.75-9.74-7.25-16.72-1.13-3.14-4-6.23-5.33-9.15-2.48-5.44-2.74-8.19-6.11-13.87-3.19-5.38-4.97-10.73-7.98-15.99-10.16-17.78-20.54-35.6-33.21-51.67-9.84-12.48-20.94-26.5-31.42-38.34-.4-.45-2.53-2.74-2.98-2.39l-.53,2.72.47,124.49c3.35,4.45,8.41,6.91,12.53,10.43,5.87,5.01,8.53,7.9,15.2,12.26,4.37,2.85,7.7,8.33,11.98,10.99,5.09,3.15,9.64,5.6,14.47,9.49.43.35,2.16,2.01,2.21,2.32-2.9,6.03-4.89,1.11-7.77-.74-2.19-1.41-5.78-1.52-7.3-2.55-2.04-1.39-4.89-5.66-7.25-6.85-1.61-.82-2.85-.5-4.27-1.22-2.36-1.2-5.76-5.6-8.55-7.43-6.17-4.05-12.48-7.85-18.87-11.58-.62-.36-1.07-.93-1.58-1.41-.29.33-.82.62-.99,1-.47,1.04-.52,16.21-.27,18.24.16,1.34,1.05,2.32,1.05,3.48,0,1.16-.89,2.15-1.05,3.48-.26,2.14-.29,13.14.24,14.78.68,2.11,2.65,1.61,4.12,2.37,12.7,6.59,20.44,16.29,35.45,21.95,12.12,4.57,19.01,8.16,30.18,14.23,5.53,3,13.06,4.69,18.95,7,3.87,1.51,16.56,7.94,19.57,7.89,1.96-.03,3.18-1.72,5.38-.41.95.56,2.64,3.07,3.72,3.9,7.2,5.57,16,5.46,24.18,7.13,4.45.91,9.43,2.97,14.11,3.35,7.27.6,14.81-1.85,22.08-2.34l.64-.48c-2.48-6.97,5.01-11.48,7.2-17.16,5.5-14.27-2.2-40.71-7.85-54.6-1.29-3.18-2.83-7.02-4.28-10.2-.74-1.61-2.79-3.8-3.31-5.18-.56-1.47-.42-3.5-.91-5.08-1.19-3.78-5.48-11.18-7.63-14.84-.62-1.05-3.69-2.97-2.22-4.29l2.01-.75c.21-2.49-2.53-2.76-3.37-3.62-.36-.37-.36-1.14-.68-1.57-.86-1.12-2.23-.83-1.36-3.48.37-1.13,2.05-1.01,2.95-.61.4,3.06,2.74,3.42,4.45,5.53,2.37,2.93,6.16,10.7,8.07,14.4,4.99,9.64,10.15,21.06,14.39,31.05,2.07,4.88,4.24,10.54,4.97,15.76,1.2.13,1.77-.02,1.99-1.25,1.87-10.42-5.95-22.97-10.22-32.23-7.81-16.94-15.65-34.02-25.29-50.12-3.12-5.22-13.91-19.49-14.83-24.12-.21-1.05.13-2.21-.16-3.34-.45-1.79-3.86-5.14-3.41-7.04s3.31,1.23,3.94,1.98c13.02,15.64,23.38,35.87,35.79,52.61,1.36,1.83,7.25,10.62,9.42,10.03,1.85-.5-.75-7.05.71-8.7.67-.92,3.62.95,4.07-2.51-.14-27.13.3-54.57-.54-81.46-5.35-8.11-9.6-16.97-14.75-25.19-1.2-1.92-9.99-15.02-10.92-15.03-3.04-.05,3.14,7.63,2.74,7.98-4.35.3-5.74-6.07-7.49-9.22l2.04-1.1c.62-2.72-1.43-3.44-2.02-4.55-.31-.58-.24-1.54-.62-2.25-2.99-5.5-7.01-10.35-10.34-15.63-2.18-2.28-2.95.71-3.34.8-2.22.53-1.98-1.38-2.66-2.16-1.87-2.17-8.76-9.9-9.61-11.99-.39-.96-.47-1.84-.38-2.87,2.42-.71,2.11,1.77,3.99,1.99-.46-3.11-3.26-5.9-5.48-7.99.19,1.38.22,5.16-2.01,3.76-.81-.51-6.32-7.46-3.72-8.25,1.84-.56,1.16,1.94,2.74,1.49-.61-2.08-1.48-4.57-3.84-5.15l-2.9-4.84-1.25,2.99c-2.29-.27-3.39-1.73-2.98-3.99.34-.39,3.36,2.27,2.94.3-.52-2.45-2.47-3.47-3.78-4.97-.51-.57-.22-2.16-1.66-1.83-.61,2.17,2.83,3.72.74,5.49l-4.72-3.87-1.51-4.12c.37-.35,4.06.73,3.48-.74-.83-2.13-5.38-6.41-6.88-8.58-.3-.43-.75-1.78-1.35-.68-.75,1.41,2.13,3.17,2.26,5.75.07,1.42-1.65.77-2.29.28-1.4-1.07-7.48-8.54-8.7-10.28-3.84-5.48,1.17-2.36,1.49-2.75,1.02-2.27-4.64-8.6-6.48-6.99l1.99,4.99c-2.65.8-6.27-3.27-5.43-5.68.33-.93,2.11-.25,1.31-2.93-.42-1.41-4.85-6.17-6.36-4.88l3.37,5.25-1.13,1.1c-1.9.2-14.72-13.91-17.4-16.15ZM81.26,7.32c-.83-.78-.92-2.39-2.87-1.8l-.79,1.22c1.39.89,7.78,7.77,8.98,6.75l-1.8-2.94c-1.14-1.09-2.37-2.15-3.51-3.23ZM134.71,5.5h-35.91l-.75,1.24c24.96,25.58,48.55,52.88,69.05,82.23,8.88,12.72,16.68,26.19,25.22,39.06,1.24,1.87,4.46,3.26,3.44,6.56-.43,1.21-2.49.26-2.42,2.49.08,2.54,2.43,5.64,3.72,7.8,2.24-1.4.62-2.96.7-4.74.49-9.96,1.44-22.64.56-32.5-.3-3.34-5.13-11.1-7.08-14.39-7.39-12.5-15.79-24.58-23.57-36.85-10.54-16.62-21.4-33.23-31.7-50.05-.24-.32-.94-.8-1.27-.86ZM185.17,77.1c.5.65.82,2.59,1.9,2.34,1.29-.29.46-2.4.13-3.12-6.93-15.28-18.21-30.68-25.9-46-3.81-7.58-7.08-15.55-9.16-23.8-.88-1.54-7.7-1.86-7,.51,2.38,4.41,4.05,9.18,6.37,13.62,2.69,5.15,6.25,9.84,9.09,14.88,7.49,13.26,15.46,29.8,24.58,41.58ZM174.02,6.66c-.62.53-2.36,3.36-2.54,4.2-2.22,10.87,2.51,19.98,5.78,29.99.2,4.2-2.54.78-3.6-.92-2.61-4.16-8.53-20.9-8.79-25.67-.15-2.61.2-5.18.3-7.76-.74-1.49-3.57-1.03-4.95-.94l-.75.75c-.68,2.09.96,8.82,1.66,11.18,2.82,9.47,7.37,17.53,11.82,26.13,2.14,4.14,4.5,10.79,7.18,14.3,5.59,7.33,7.59,14.01,12.08,21.87,1.29,2.26,3.26,4.28,4.05,6.84l1.28.3.65-80.09c-.13-.45-.48-.9-.89-1.1-.94-.46-18.08-.5-20.21-.26-.97.11-2.34.55-3.07,1.17ZM149.09,89.27c.6.72,2.1,1.38,2.58,2.66.99-.07,1.36-.56,1.04-1.53-.25-.77-5.26-6.86-6.18-7.81-.49-.5-.49-1.41-1.59-1.15-.3,2.65,2.06,4.38,3.5,6.26.36.48.36,1.21.66,1.57ZM198.3,392.48c.53-1.87,0-9.83,0-12.49,0-.37-1.21-1.13-1.76-1.24-3.41-.64-8.42-.1-11.92-.55-8.03-1.04-19.77-3.67-27.74-5.69-13.31-3.37-26.08-8.92-38.79-13.6-37.49-13.8-71.28-26.07-105.19-47.52-2.16-1.37-4.73-2.09-6.39-4.08-1.97-.02-1.26,9.75-1,11.49,4.68,4.17,11.19,5.47,15.75,9.79-.42,1.84-.79,2.01-2.65,1.58-3.23-.75-8.21-5.15-11.33-6.17s-2.04,5.69-2.04,8.05c0,1.17.51,2.24.54,3.45.04,1.56-1.42,7,.57,8.18.69.41,2.92-.46,2.91,1.34-.6,2.65-3.44-.55-3.98,2.51-.33,1.87-.18,14.61.48,15.85.82,1.53,9.1.88,11.13,1.97,1.12.6,1.39,1.91.23,2.53-2.99,1.59-6.95-.54-10.5.47-2.71.77-.87,9.3-.83,11.62.03,1.62-1.55,5.48.18,6.82,18.91,3.47,37.43,7.08,55.66,13.2,20.51,6.89,40.19,15.83,60.36,23.47,2.73,1.04,6.35.39,6.51,4.73,2.32-.14,3.91-.96,6.25-.02,1.5.6,3.35,2.97,5.07,3.41,2.82.73,5.56-.35,6.62,3.86-.67.95-1.69.88-2.7.74-.67-.09-6.17-1.8-6.89-2.11-2.73-1.18-8.12-5.37-11.15-5.82-3.39-.49-6.1-.62-6.67,3.24-2.56.52-2.16-2.7-3.86-3.19s-4.07-.18-6.13-.85c-2.32-.75-4.09-3.1-5.47-3.54s-2.42.26-3.76-.16c-2.15-.68-6.92-4.08-9.73-5.29-16.29-7.04-32.94-12.84-49.99-17.38-2.55-.68-6.1-2.79-8.74-3.24-2.22-.37-4.63.21-6.75-.23-2.89-.6-5.94-2.62-10.23-3.24-1.99-.29-6.95-1.33-8.33-.14-.13.36-.75,1.03-.75,1.25v66.95c0,1.89,5.03-.17,5.73-.18,2.75-.04,8.74,1.69,11.57,1.81.88.04,1.51-.81,2.39-.84.33-.01,5.14.96,6.42,1.13,14.61,2.01,36.17,9.27,49.4,15.36,1.78.82,3.49,2.64,5.19,3.29s3.55.38,5.11.87,4.46,2.65,6.11,3.37c12.64,5.55,25.01,11.32,37.11,17.29,2.34,1.16,4.22,3.46,6.11,4.38,1.76.86,3.6.77,5.37,1.62,2.41,1.16,4.85,4.03,7.68,5.3,1.2.54,2.58.34,3.91,1.08,2.02,1.12,3.73,4.48,6.32,4.71.96.08,1.89-.58,2.68-.26.9.36,3.7,4.02,5.03,4.98,2.57,1.85,4.66,1.68,7.13,2.85,2.32,1.1,5.19,4.57,7.43,5.55,1.3.57,2.59.52,4.2,1.29,2.81,1.35,4.24,4.07,6.83,5.56l1.05-.98.26-101.17c-.53-4.74-1.92-4.32-5.5-5.51s3.46-2.58,4.68-2.3l.75-.75-.03-17.82c-.38-1.27-4.14-2.57-5.48-3-6.74-2.17-14.32-2.8-20.77-4.68-3.58-1.04-7.42-4.01-11.08-5.39-4.35-1.65-10.34-2.02-13.98-4.98-1.55-1.26-4.17-4.07-1.32-5.2,8.15,2.47,15.81,6.27,23.79,9.16,5.74,2.08,11.94,4.39,17.73,6.23,1.84.59,7.01,2.36,8.52,2.48.69.06,2.68.13,2.68-.71v-8.99c0-3.32-6.99-2.37-8.59-3.26-.82-.45-.65-1.73-2.5-2.17-1.4-.33-4.6,3.12-6.85-.57,1.86-2.54,4.43-.74,6.76-.29,2.84.56,2.84.73,5.06,1.43,1.32.42,5.65,1.05,6.13-.64ZM94.22,523.98c-.63-.5-.82-1.88-2.03-2.24-1.7-.51-3.11.81-4.6.16-1.72-.76-3.01-3.6-4.51-4.05-1.62-.48-2.74.65-4.52.09-1.49-.47-3.75-3.37-4.82-3.69-1.21-.36-2.64.1-3.87-.12-.54-.1-6.67-2.22-7.87-2.61-1.27-.42-3.35-2.63-4.21-2.77s-1.56.98-2.33.83c-.48-.09-1.02-1.04-1.68-1.32-6.34-2.61-12.23-1.75-18.76-1.79-2.45-.02-7.89-.71-10.04-.31-1.4.26-3.05,2.53-4.39,3.11-1.51.65-2.98.34-4.61,1.38-.85.55-4.23,5.07-4.52,5.97-.73,2.27-.47,16.61-.24,19.79.31,4.29,4.96,16.2,6.91,20.56,6.11,13.7,13.63,24.46,21.46,36.96,7.32,11.68,13.82,22.77,21.81,34.11,12.72,18.04,24.87,36.61,36.53,55.35,9.23,14.85,18.34,29.78,26.8,45.11.64.83,1.48,1.32,2.51,1.48,1.76.28,11.44.25,12.48-.45l.52-1.05c-.44-.87-1.22-1.49-1.67-2.35-12.23-23.34-27.28-44.98-40.73-67.63-6.56-11.04-14.3-20.57-20.67-31.26-3.15-5.28-5.28-11.13-8.66-16.31s-8.38-10.36-11.48-15.98c-1.97-3.58-3.19-7.8-5.02-11.46-1.42-2.85-3.97-5.72-5.23-8.75-2.96-7.14-6.71-18.32-7.13-25.83-.22-3.91.92-7.59,1.08-11.45.3-.92,2.28-.89,3.41-1.59s1.67-2.13,2.57-2.93c4.51-3.96,11.31-4.52,17.11-3.76,2.27.3,4.82,2.12,6.55,2.43,2.74.49,7.75-.04,10.23.75,1.19.38,2.31,1.99,3.95,2.54,9.8,3.26,19.89,5.9,29.28,10.14,4.45,2.01,10.68,6.57,14.75,8.21,1.54.62,3.16.28,4.98,1.01,2.16.86,3.58,3.25,5.7,4.28,1.36.66,2.78.7,4.11,1.38,2.2,1.12,5.48,4.62,7.15,5.32,1.58.67,3.17.08,4.74.75,1.42.6,1.69,2.37,2.92,3.07,2.02,1.15,5.13,1.22,7.85,3.13,1.67,1.18,4.22,4.53,5.84,5.19,1.15.47,1.46-.85,2.81-.4,2.03.68,3.82,3.81,5.48,5.05,2.43,1.81,9.46,4.93,12.49,6.47,2.84,1.45,7.08,4.67,5.53-2.05-.23-.97-4.08-5.24-4.89-5.59-.93-.4-1.9-.08-2.65-.35-.92-.32-1-1.72-1.84-2.16s-2.04-.23-3.18-.81c-2.34-1.2-4.94-6.12-7.3-7.18-1.39-.63-2.89.08-4.67-.82-1.92-.98-5.31-5.47-7.84-7.14-2.38-1.57-5.03-2.01-7.11-3.37-1.48-.97-2.19-2.77-3.13-3.36-1.66-1.04-3.72-.15-5.56-.93-2.5-1.06-5.37-6.61-8.47-7.02-1.01-.13-1.49.5-2.98.03-1.89-.59-3.41-3.46-5.18-4.34-1.4-.7-2.94-.43-4.07-.82-.58-.2-3.51-2.99-4.52-3.56-2.68-1.53-4.5-1.36-6.71-2.27-1.32-.55-3.82-3.68-4.96-4.02-1.58-.48-3.56.36-5.13-.36-.87-.39-2.6-2.78-3.84-3.65-3.26-2.27-6.51-2.03-9.97-4.76ZM198.3,636.82v-16.99c-17.38-11.17-35.77-20.97-54.87-28.97-8.43-3.53-12.96-5.21-21.97-6.97-2.23-.44-3.71-1.92-6.26-2.22-3.79-.45-12.78-1-16.36-.51-4.53.62-10.15,7.85-10.73,12.24-.96,7.25,4.81,23.47,8.01,30.37,6.49,13.98,14.89,29.5,22.27,43.14,11.28,20.86,24.21,40.83,34.79,62.09.23.28,1.74,1.02,1.98,1.02h23.44c.66,0,1.01-1.96.65-2.63-4.36-10.52-8.78-21.28-11.63-32.33-2.63-10.2-5.39-23.9,1.77-32.73,7.61-9.38,18.31-4.92,28.35-3.83.05-.38.57-1,.57-1.18v-14.99c-1.92-1.68-4.96-2.09-7.34-3.14-11.23-5-24.18-11.02-36.83-10.53-.96.04-1.75.92-2.97.97s-2.38-.57-3.9-.5c-4.39.19-8.75,2.59-10.16,6.86-1.16,3.52-1.19,13.36-.43,17.12.57,2.81,3.02,5.07,3.56,7.43.45,1.94.06,3.79.63,5.87s3.06,5.67,3.47,7.51c1.4,6.21,2.39,8.79,4.84,14.64.91,2.18,1.28,4.18,2.03,5.96,1.09,2.6,5.01,7.52,5.59,9.39.24.76.1,1.6.11,2.39,0,.44-1.01.33-1.23.23-1.77-.77-6.21-11.76-7.37-14.1-8.09-16.45-19.7-39.95-17.87-58.6.6-6.05,5.04-8.94,10.5-10.46,13.05-3.65,35.23,5.02,47.51,10.36,1.92.84,4.86,2.92,6.94,3.54.82.25,2.56.74,2.91-.42ZM75.85,730.01h12.47l.7-.82c.18-.6,0-1.13-.17-1.7-.24-.76-3.61-6.75-4.26-7.74-1.98-3.04-5.56-6.23-7.51-8.97-1.1-1.55-1.64-4.12-2.47-5.4-.72-1.12-2.87-2.32-3.55-4.07-.58-1.49-.26-2.94-.68-4.31-.39-1.26-1.82-1.94-1.81-3.73.01-2.64,3.35-2.03,3.03-3.48-.12-.54-1.5-1.46-2.23-1.25-1.2.33-.19,3.05-1.5,2.49-4.37-3.82-8.14-8.49-10.68-13.75,1.7-1.42,3.63-1.28,2.89-4.19l-2.9-.52c-.17.73-.73,2.72-1.78,2.47-.53-.13-5.81-8.24-5.74-9.21.1-1.25,1.56-2.68,1.03-4.48-.12-.39-2.57-.35-2.53-2.58.03-1.69,2.74-.9,2.97-2.01.02-.62-1.1-3.55-1.97-2.97l-1.74,3.75-2.5-2.48c-.21-1.83,1.4-1.59,2.7-2.06.68-4.38-6.69-6.25-3.93-10.93-2.88-.34-3.84-.94-4.03-3.96-2.68-.49-3.8.8-3.45,3.46l-2.25-.5-.74-3c6.87-.72-.7-5.06-1.4-7.36-.65-2.15,1.14-3.57.54-5.48-.93-2.96-4.02-2.62-6.61-2.66-.47-1.65,2.83-1.16,2.49-2.74-.13-.61-2.86-1.95-3.5-2.99-.7-1.13-.66-3.13-1.1-3.65-.38-.45-1.51-.26-1.93-.94-.78-1.27-.17-3.72-2.34-4.92l.88-1.51c-.78-1.42-3.14-.33-3.91-.81-.46-.29-.38-2.66-.83-3.42-.4-.69-2.26-1.16-2.6-2.25l1.87-1.77v-.73c-2.91-1.29-2.45-3.83-3.78-6.2-2.24-1.47-5.15-10.07-5.71-3.32-1.06,12.67.53,27.34.4,40.12,16.37,24.15,34.57,46.91,50.42,71.41,5.55,8.58,10.86,17.38,16.47,25.97,1,1.53,1.56,3.89,3.32,5.17ZM5.27,658.31v35.98c0,1.84,10.23,16.44,11.99,19.47,2.85,4.93,5.09,10.29,7.84,15.27,1.79,1.61,9.55.99,12.37,1,1.19,0,2.28-.55,3.47-.56,3.2-.04,7.95,1.95,10.71-.71-1.54-2.39-2.39-5.21-3.78-7.69-3.27-5.84-8.04-11.6-11.58-17.38-3.24-5.31-5.83-11-9.16-16.3-6.4-10.19-13.89-19.87-20.61-29.82l-1.24.75ZM55.36,661.34c-.94-1.06-4.16-4.42-3.72-.56.03.26,2.34,4.32,2.52,4.51.3.31,4.1,2.66,4.48,2.26.22-2.27-1.83-4.57-3.28-6.2ZM193.71,670.2c-5.89.5-10.82,2.4-12.25,8.71-3.4,15.03,2.68,31.67,7.72,45.5.75,2.05,1.48,8.19,4.42,4.07-4.05-11.57-8.94-25.79-7.79-38.21.38-4.15,3.09-10.98,6.54-13.44,1.58-1.13,5.33-1.87,5.85-3.64,1.15-3.91-1.93-3.21-4.49-2.99ZM6.51,730.01h7.98l.76-1.23-8.49-18.76c-1.34.54-1.4,1.98-1.51,3.22-.19,2.05-.22,14.67.28,15.76.11.23.82.96.99,1.01Z"/>
      <path class="cls-1" d="M154.84,223.29l-1.87.87.18,2.71c.92,1.45,2.52-.83,2.26-2.02,2.97.15,3.72,2.23,4.5,4.75.16.53.9.38-.26,1.24l-3.93-1.53-2.06,2.04c-2.31-2.92-4.73-5.85-5.74-9.49l3.74.98.75-2.1,1.25-.76c1.26.59,1.48,2.09,1.17,3.32Z"/>
      <path class="cls-1" d="M29.21,296.3c-4.06-1.27-7.56-3.94-7.98-8.49-3.37,2.03-7.59,1.86-7.97-2.73l1.24-.77,2.03,2.99c4.98-2.74,11.72,4.26,12.69,9Z"/>
      <path class="cls-1" d="M133.85,194.98c.34.19.69,2.11,1.81,1.87s.82-2.39,2.28-1.98l.97,2.7-1.96,2.04c2.24,1.57,4.08,2.7,2.99,5.75-2.56-.2-3.13-2.63-4.27-3.96-1.71-1.99-4.23-3.69-3.71-6.53.6.05,1.35-.19,1.89.11Z"/>
      <path class="cls-1" d="M39.68,199.87c.46.42,1.01,7.46.88,8.61-.53,4.49-4.51,5.53-4.3,3.21.1-1.18,2.4-2.47,2.4-4.07,0-3.07-3.89-2.3-.11-7.12.23-.3.35-1.35,1.13-.63Z"/>
      <path class="cls-1" d="M102.2,148.74c.59.88,2.76,1.5.58,3.64-.84-1.83-7.74-6.92-7.23-8.73,1.09-3.88,6.23,4.45,6.65,5.08Z"/>
      <path class="cls-1" d="M74.45,98.59c.24.14,3.88,3.71,4.02,3.95.41.71,0,2.03.12,2.88l-4.93-3.8c-.81-1.18-2.25-2.15-2.05-3.69.81.25,2.18.26,2.84.65Z"/>
      <path class="cls-1" d="M111.51,161.89c2.71-1.21,6.06,5.31,3.73,5.99-2.74-.38-4.17-3.4-3.73-5.99Z"/>
      <path class="cls-1" d="M68.01,291.41c.35.61.03,1.67.11,2.39-3.3-.43-5.97-1.66-5.48-5.49.66-.69,5.16,2.72,5.38,3.1Z"/>
      <path class="cls-1" d="M190.81,156.89c-3.23-1.18-4.77-4.1-4.48-7.49,2.79,1.67,4.91,4.01,4.48,7.49Z"/>
      <path class="cls-1" d="M6.8,278.35c1.16-1.61,5.91,1.83,4.72,3.97-1.27,1.83-5.86-2.38-4.72-3.97Z"/>
      <path class="cls-1" d="M165.55,114.27c.24.36,1.13.22,1.35,1.39.18.96.12,2.11-.76,2.75-1.56-2.01-4.98-4.16-2-6.48.78.59.9,1.57,1.41,2.33Z"/>
      <path class="cls-1" d="M156.16,233.34c7.79,1.3,2.82,7.88-.51.99l.51-.99Z"/>
      <path class="cls-1" d="M192.57,158.9c.65-.14,4.76,4.39,2.48,4.99-1.75.46-4.74-3.55-2.48-4.99Z"/>
      <path class="cls-1" d="M74.6,296.29c-2.21.87-6.05,1.59-5.49-1.99,2.11-.14,4.41-.16,5.49,1.99Z"/>
      <path class="cls-1" d="M107.52,157.39c-.61.7-4.22-3.12-2.99-4.5l2.77.97.21,3.53Z"/>
      <path class="cls-1" d="M131.46,66.95h-2.99s0-3.49,0-3.49c1.54-.81,3.52,2.99,2.99,3.49Z"/>
      <path class="cls-1" d="M147.43,334.78c1.64-.07,3.65-1.36,4.98.25l-3.24,1.75c-.82.01-1.91-1.07-1.73-1.99Z"/>
      <path class="cls-1" d="M111.01,160.89l-2.42-.07-.57-3.43c2.42-.3,2.35,1.82,2.99,3.49Z"/>
      <path class="cls-1" d="M39.68,198.36l-2.66-1.96c-1.6-4.23,3.48-.96,2.66,1.96Z"/>
      <path class="cls-1" d="M77.43,296.88c2.76-.77,2.03,5.67-1.32,1.17.41-.37.78-1.02,1.32-1.17Z"/>
      <path class="cls-1" d="M147.43,413.21c-1.14.32-1.75.63-3,.3-3.36-.9-7.75-4.23-10.84-5.67-5.56-2.59-11.46-4.58-17.09-6.87-9.46-3.84-18.29-8.62-28.08-11.85s-21.16-6.21-31.29-10.12c-2.24-.87-4.94-2.75-7.37-3.61-5.65-2.01-12.88-2.18-18.08-4.89-.48-.25-1.31-.09-.97-.99.41-1.07,2.14-1.5,3.21-1.27,27.86,5.01,56.01,10.46,82.07,21.26.8.33,4.21,1.99,4,2.98-1.14,1.81-7.09-.64-5.48,2.5l28.45,12.98c2.18,1.31,4.27,2.38,4.47,5.26Z"/>
      <path class="cls-1" d="M121.84,380.89c.51.56.37,1.73.97,1.88,3.72-.08,7.13-1.21,8.58,3.23-.13,1.87-6.17.76-7.33.41-.42-.13-7.11-4.07-7.57-4.42-.67-.5-.95-1.74-1.31-1.79-.63-.08-1.56.61-2.41.54-.72-.06-2.43-1.42-3.73-1.78-3.47-.96-10.2-2.68-13.36-4.1-1.25-.56-1.9-2.16-3.48-2.51-1.46-.33-3.57.35-4.16.12-.55-.21-5.48-4.49-4.96-5.22.93-.21,1.59-.56,2.61-.42.81.11,5.48,1.83,6.76,2.27,4.04,1.38,17.81,5.98,20.53,7.91,1.1.78,1,2.44,1.83,2.69,1.54.48,4.13-1.98,7.03,1.18Z"/>
      <path class="cls-1" d="M40.8,357.64c-.63-.71-.65-2.95-.04-3.81.9-.57,5.58.31,6.6.98.78.51,1.39,2.28,2.04,2.33.46.04,3-1.73,4.38-.77,7.93,3.42,17.84,4.87,25.61,8.33,1.34.6,1.46,1.6,2.13,2.81-3.2,3.22-8.13-1.3-11.41-2.5-2.49-.91-4.52-.36-6.61-.87-1.06-.26-2.67-2-3.73-2.26-1.24-.31-2.52.03-3.76-.23-1.97-.41-5.66-2.85-7.21-3.31-1.39-.41-6.32,1.2-8-.7Z"/>
      <path class="cls-1" d="M35.19,355.76c-.24.23-5.33-1.67-6.35-1.88-1.38-.28-4.5.61-4.12-1.12,3.16,1.25,3.88-2.85,6.18-2.4.35.07,4.87,4.83,4.29,5.39Z"/>
      <path class="cls-1" d="M140.44,390.74c-.69.69-5.96-1.49-5.48-3.24.9-2.11,6.96.28,5.48,3.24Z"/>
      <path class="cls-1" d="M106.03,363.26c2.29.52,4.95,2.78,2.74,4.99l-3.02-1.98.28-3Z"/>
      <path class="cls-1" d="M177.65,423.74c2.32-.63,5.02,4.04,2.93,4.47-.72.15-5.73-3.72-2.93-4.47Z"/>
      <path class="cls-1" d="M189.67,428.88c.46.4,2.14,2.86,1.65,3.33-4.86,1.59-4.84-6.06-1.65-3.33Z"/>
      <path class="cls-1" d="M172.7,421.87c1.6,1.87-.66,4.01-2.57,1.33-2.12-2.98.45-3.81,2.57-1.33Z"/>
      <path class="cls-1" d="M31.02,382.35l2.96,1.38c1.59,3.02-7.23,1.48-2.96-1.38Z"/>
      <path class="cls-1" d="M171.86,388.73c-1.86.62-4.32,1.07-5.48-.99,1.73.13,5.2-1.85,5.48.99Z"/>
      <path class="cls-1" d="M72.1,396.73l-2.42-.07c-2.04-4.78,2.37-3.81,2.42.07Z"/>
      <path class="cls-1" d="M37.54,335.9c1.87,1.45-1.26,2.6-2.78,1.3l-.07-2.42c.11-.12,2.63.96,2.85,1.12Z"/>
      <path class="cls-1" d="M160.38,714.02c1.32,2.73,5.6,4.76,3.99,8.49-1.72-1.97-6.57-5.2-4.98-8.18l.98-.31Z"/>
      <path class="cls-1" d="M25.54,627.14l2.63.76-1.2,3.66c-1.91-.79-3.4-2.86-1.43-4.43Z"/>
      <path class="cls-1" d="M44.05,649.68c.36.64.06,1.64.12,2.38-3.09,1.23-5.57-5.54-2.29-4.45.14.05,2.09,1.94,2.17,2.07Z"/>
      <path class="cls-1" d="M39.69,642.56v3.5s-2.87-.62-2.87-.62c-.68-.88-.53-1.87-.05-2.81l2.93-.07Z"/>
      <path class="cls-1" d="M24.15,623.66c.55.89.17,4-1.66,3.41-.96-.3-1-2.75-.52-3.51.36-.79,2.04-.14,2.19.1Z"/>
    </g>
  </g>
</svg>