<?xml version="1.0" encoding="UTF-8"?>
<svg id="Layer_1" data-name="Layer 1" xmlns="http://www.w3.org/2000/svg" xmlns:xlink="http://www.w3.org/1999/xlink" viewBox="0 0 672.05 400">
  <defs>
    <style>
      .cls-1 {
        fill: #bbd3d0;
      }

      .cls-2 {
        fill: #eca683;
      }

      .cls-3 {
        fill: url(#linear-gradient-5);
      }

      .cls-4 {
        fill: url(#linear-gradient-4);
      }

      .cls-5 {
        fill: url(#linear-gradient-3);
      }

      .cls-6 {
        fill: url(#linear-gradient-2);
      }

      .cls-7 {
        fill: #e8a445;
      }

      .cls-8 {
        fill: url(#linear-gradient);
      }

      .cls-9 {
        fill: #f4c049;
      }

      .cls-10 {
        fill: #fff;
      }

      .cls-11 {
        fill: #f8df6a;
      }
    </style>
    <linearGradient id="linear-gradient" x1="426.48" y1="194.87" x2="644.54" y2="483.72" gradientUnits="userSpaceOnUse">
      <stop offset="0" stop-color="#214155"/>
      <stop offset=".99" stop-color="#294860"/>
    </linearGradient>
    <linearGradient id="linear-gradient-2" x1="269.9" y1="96.21" x2="481.96" y2="429.06" gradientUnits="userSpaceOnUse">
      <stop offset="0" stop-color="#4e6f7c"/>
      <stop offset=".86" stop-color="#42737f"/>
    </linearGradient>
    <linearGradient id="linear-gradient-3" x1="149.21" y1="-38.14" x2="405.22" y2="372.68" gradientUnits="userSpaceOnUse">
      <stop offset="0" stop-color="#61969a"/>
      <stop offset=".82" stop-color="#79aba1"/>
    </linearGradient>
    <linearGradient id="linear-gradient-4" x1="165.84" y1="68.08" x2="128.02" y2="-1.55" gradientUnits="userSpaceOnUse">
      <stop offset=".06" stop-color="#bbd3d0"/>
      <stop offset=".59" stop-color="#c2d6d3"/>
      <stop offset=".95" stop-color="#cbdbd8"/>
    </linearGradient>
    <linearGradient id="linear-gradient-5" x1="1502.33" y1="12499.5" x2="1594.94" y2="12510.58" gradientTransform="translate(2842.6 12583.04) rotate(-18.3) scale(1 -1)" gradientUnits="userSpaceOnUse">
      <stop offset=".11" stop-color="#b475ab"/>
      <stop offset=".43" stop-color="#8c6fac"/>
      <stop offset=".7" stop-color="#716dad"/>
      <stop offset=".84" stop-color="#696eae"/>
    </linearGradient>
  </defs>
  <path class="cls-1" d="M672.05,114.64v285.36s-371.06,0-371.06,0c4.86-5.93,10.58-12.08,17.44-18.48,50.73-47.32,69.42-20.41,151.1-69.53,54.17-32.58,95.19-74.03,111.28-91.07,46.99-49.78,54.75-75.09,91.24-106.27Z"/>
  <path class="cls-8" d="M672.05,114.64v285.36h-396.85c4.86-5.93,33.84-14.06,40.7-20.46,50.73-47.32,71.95-18.43,153.63-67.55,54.17-32.58,95.19-74.03,111.28-91.07,46.99-49.78,54.75-75.09,91.24-106.27Z"/>
  <path class="cls-6" d="M672.05,0v121.54c-44.21,30.11-37.82,56.53-80.79,107.52-15.15,17.98-60.48,57.49-114.65,90.07-81.68,49.12-92.88,26.42-158.19,62.4-8.11,4.47-20.94,11.28-28.51,18.48H0s0-18.33,0-18.33c1.08-1.09,2.17-8.83,3.28-9.89,36.05-34.22,69.75-48.2,99.22-63.57,88.67-46.26,77.83-50.09,143.72-90.33,5.45-3.33,24.08-19.54,29.06-22.06,56.81-28.79,77.35-4.68,150.69-71.15,16.82-15.25,35.32-28.71,49.91-52.84,10.26-16.97,22.79-35.58,41.52-55.04,5.34-5.55,12.67-11.26,20.91-16.79h133.76Z"/>
  <path class="cls-5" d="M583.8,0c-17.73,3.09-37.85,10.76-55.91,24.2-21.47,15.97-31.11,29.1-41.37,46.07-14.6,24.13-25.73,41.15-50.72,60.39-63.9,49.18-91.62,44.58-143.9,69.34-69.71,33.02-97.8,81.66-167.56,115.6-56.99,27.73-79.27,12.36-121.06,62.86-1.03,1.24-2.21,2.13-3.28,3.22v-224.07c39.58-7.62,62.29-27.49,94.87-59.74,30.16-29.85,59.52-50.81,95.18-62.5C244.57,17.49,244.37,33.52,321.98,0h261.82Z"/>
  <path class="cls-4" d="M54.97,171.68c-13.43,7.23-39.3,8.86-54.97,12.59V0S357.82,0,357.82,0c-61.94,46.96-97.1,28.76-164.41,68.33-101.41,59.62-56.43,59.18-138.44,103.35Z"/>
  <g>
    <g>
      <path class="cls-3" d="M421.86,192.64l5.12,15.49s-2.8,5.14-12.83,8.08c-43.92,10-75.14,51.19-75.14,51.19,0,0,23.96-51.43,68.14-73.94,9.81-3.62,14.72-.81,14.72-.81h0Z"/>
      <path class="cls-10" d="M418.89,194.27l4.74,14.31s-4.14,6.18-14.41,6.1c-14.27-.11-32.4,10.13-32.4,10.13,0,0,14.63-17.7,26.87-26.85,8.23-6.14,15.21-3.7,15.21-3.7h0Z"/>
      <path class="cls-2" d="M416.93,198.47l2.62,7.93s-4.92,3.83-11.25,3.3c-6.14-.52-8.68-.26-8.68-.26,0,0,1.69-2.83,6.3-6.91,4.76-4.2,10.99-4.06,10.99-4.06h0Z"/>
      <path class="cls-9" d="M549.7,136.43c-.2,1.91-1.9,3.31-3.81,3.11-.56-.06-1.09-.25-1.53-.53-.13-.08-.25-.18-.37-.28h0s-.04-.03-.05-.05c-.03-.02-.05-.04-.07-.07-.04-.04-.08-.08-.12-.12h0c-.68-.71-1.06-1.71-.95-2.76.2-1.91,1.9-3.31,3.81-3.11s3.31,1.9,3.11,3.81h0Z"/>
      <polygon class="cls-11" points="527.57 155.78 543.73 138.48 543.98 138.72 532.24 155.52 528.85 156.64 527.57 155.78"/>
      <polygon class="cls-9" points="544.36 139 543.98 138.72 532.24 155.52 533.62 156.62 536.34 155.4 544.36 139"/>
      <polygon class="cls-11" points="416.31 203.08 411.44 172.93 423.12 162.27 456.38 176.91 424.63 166.54 415.11 175.27 416.31 203.08"/>
      <path class="cls-9" d="M416.31,203.08l-1.19-27.81,9.51-8.73,31.75,10.37c-11.28,6.05-25.11,14.48-40.07,26.16h0Z"/>
      <polygon class="cls-11" points="446.11 231.76 430.38 230.17 416.31 203.08 431.93 226.1 444.77 227.43 464.07 200.18 446.11 231.76"/>
      <path class="cls-9" d="M444.77,227.43l-12.84-1.33-15.62-23.03c18.97.46,35.1-1.02,47.77-2.9l-19.3,27.26h0Z"/>
      <path class="cls-9" d="M479.23,194.12c-2.24.57-9.93,2.5-19.76,4.21-6.4,1.11-11.63,1.78-14.18,2.09-2.41.29-4.21.47-5.19.57-4.7.48-11.56.95-23.79,2.08,10.49-6.38,16.28-10.1,20.34-12.51.84-.51,2.4-1.43,4.5-2.63,2.22-1.27,6.82-3.86,12.62-6.78,8.92-4.49,16.24-7.53,18.38-8.4,6.33-2.59,14.98-6.14,26.13-9.05,10.26-2.68,17.72-3.53,32.13-5.17,9.97-1.14,19.21-1.86,27.57-2.31-6.98,4.62-14.83,9.55-23.51,14.58-12.55,7.28-19.05,11.04-28.88,15.01-10.69,4.32-19.75,6.63-26.37,8.32h-.01Z"/>
      <path class="cls-11" d="M487.66,166.85l3.95-2.12,3.73-.25s-.86.62.54,3.08c1.4,2.47,11.24,8.78,22.68,9.64l-2.29,2.83-21.27-5.99-7.33-7.2h0Z"/>
      <path class="cls-7" d="M487.66,166.85s10.67,16.13,28.64,14.09l6.12-1.76,4.87-4.25s-16.52,9.12-39.64-8.08h0Z"/>
      <path class="cls-11" d="M436.65,190.56c-4.06,2.42-9.85,6.13-20.34,12.51,14.96-11.68,28.79-20.11,40.07-26.16.22-.12.44-.24.67-.36,5-2.66,9.94-5.27,16.89-8.18,6.93-2.9,23.69-9.38,46.43-12.12,9.84-1.18,22.26-1.5,37.63-.04-8.36.45-17.59,1.18-27.57,2.31-14.41,1.65-21.87,2.5-32.13,5.17-11.15,2.91-19.8,6.46-26.13,9.05-2.14.88-9.46,3.91-18.38,8.4-5.8,2.92-10.4,5.51-12.62,6.78-2.11,1.2-3.66,2.13-4.5,2.63Z"/>
      <path class="cls-7" d="M483.26,196.57c-7.32,1.81-12.85,2.66-18.44,3.5-.25.04-.5.07-.74.11-12.66,1.87-28.79,3.35-47.77,2.9,12.23-1.14,19.09-1.61,23.79-2.08.98-.1,2.78-.28,5.19-.57,2.54-.31,7.77-.97,14.18-2.09,9.84-1.72,17.52-3.64,19.76-4.21,6.63-1.69,15.69-4,26.37-8.32,9.84-3.97,16.33-7.74,28.88-15.01,8.69-5.03,16.53-9.96,23.51-14.58-11.46,10.33-21.63,17.49-30.23,22.4-19.89,11.36-37.2,16.15-44.5,17.96h0Z"/>
      <path class="cls-9" d="M555.82,139.05l-7.64,13.45c-.44-.05-1.81-.17-3.21-.22l10.63-13.44c.07.07.14.14.21.21h0Z"/>
      <path class="cls-11" d="M555.61,138.85l-10.63,13.44c-.41-.02-.83-.02-1.22-.02-.34,0-1.1.04-1.62.08,4.44-4.56,8.88-9.13,13.31-13.69.05.06.11.13.16.18h0Z"/>
      <path class="cls-9" d="M561.61,136.82c-.2,1.91-1.9,3.31-3.81,3.11-.7-.07-1.33-.34-1.83-.76-.05-.04-.1-.08-.14-.12-.07-.06-.14-.13-.21-.21-.06-.06-.11-.12-.16-.18-.56-.69-.86-1.59-.76-2.55.2-1.91,1.9-3.31,3.81-3.11s3.31,1.9,3.11,3.81h0Z"/>
    </g>
    <g>
      <g>
        <path class="cls-10" d="M142.62,148.88h16.22c11.75,0,17.11,6.46,17.11,14.43,0,5.02-2.13,10.24-7.36,12.85l9,17.32h-11.96l-7.77-15.53h-4.74v15.53h-10.51v-44.6h0ZM165.64,163.86c0-3.78-2.2-6.18-6.59-6.18h-5.91v12.37h5.91c4.33,0,6.59-2.41,6.59-6.18h0Z"/>
        <path class="cls-10" d="M181.52,171.21c0-12.71,9.55-23.02,23.43-23.02s23.5,10.1,23.5,22.95-9.96,22.95-23.5,22.95-23.43-9.89-23.43-22.88ZM217.53,171.21c0-7.15-5.22-13.06-12.58-13.06s-12.58,6.05-12.58,13.13,5.29,12.85,12.58,12.85,12.58-5.77,12.58-12.92h0Z"/>
        <path class="cls-10" d="M233.33,171.14c0-12.65,9.14-22.95,23.3-22.95,8.25,0,14.98,3.71,19.17,10.24l-9.35,5.29c-2.06-3.37-5.57-5.57-9.89-5.57-7.22,0-12.37,6.05-12.37,12.99s5.15,12.99,12.51,12.99c4.26,0,7.84-2.2,9.89-5.57l9.35,5.29c-4.26,6.53-10.92,10.24-19.17,10.24-14.29,0-23.43-10.31-23.43-22.95Z"/>
        <path class="cls-10" d="M281.84,148.88h10.72v18.49l13.81-18.49h12.78l-15.87,20.06,17.46,24.53h-12.58l-11.68-16.28-3.92,4.67v11.61h-10.72v-44.6h0Z"/>
        <path class="cls-10" d="M325.07,148.88h29v9.28h-18.49v8.32h16.84v9.07h-16.84v8.59h18.62v9.35h-29.14v-44.6h0Z"/>
        <path class="cls-10" d="M372.34,158.7h-13.81v-9.83h38.41v9.83h-13.81v34.77h-10.79v-34.77h0Z"/>
      </g>
      <path class="cls-10" d="M156.43,217.04h-13.81v-9.83h38.41v9.83h-13.81v34.77h-10.79v-34.77Z"/>
      <path class="cls-10" d="M187.01,207.21h29v9.28h-18.49v8.32h16.84v9.07h-16.84v8.59h18.62v9.35h-29.14v-44.6h0Z"/>
      <path class="cls-10" d="M235.66,207.21h12.92l15.8,44.6h-11.13l-2.55-7.84h-17.39l-2.61,7.84h-10.92l15.87-44.6h0ZM247.62,234.7l-5.5-17.04-5.7,17.04h11.2Z"/>
      <path class="cls-10" d="M280.05,222.67v29.14h-10.31v-44.6h14.77l10.38,31.89,10.24-31.89h14.91v44.6h-10.31v-29.48l-9.55,29.48h-10.72l-9.41-29.14h0Z"/>
    </g>
    <g>
      <path class="cls-9" d="M110.62,160.57v-11.79h5.02v11.53c0,3.34,1.65,4.76,4.32,4.76s4.32-1.43,4.32-4.76v-11.53h5.02v11.79c0,6.07-3.75,9.12-9.34,9.12s-9.34-3.05-9.34-9.12h0Z"/>
      <path class="cls-9" d="M110.42,186.6c0-5.85,4.22-10.61,10.77-10.61,3.81,0,6.92,1.72,8.86,4.73l-4.32,2.44c-.95-1.56-2.57-2.57-4.57-2.57-3.34,0-5.72,2.79-5.72,6s2.38,6,5.78,6c1.97,0,3.62-1.02,4.57-2.57l4.32,2.44c-1.97,3.01-5.05,4.73-8.86,4.73-6.61,0-10.83-4.76-10.83-10.61h0Z"/>
      <path class="cls-9" d="M111.39,220.99l3.31-3.15c1.46,1.84,3.46,2.57,5.34,2.57,1.97,0,3.12-.6,3.12-1.97,0-1.02-.86-1.62-2.38-2.1l-2.67-.79c-2.67-.82-5.78-2.19-5.78-6.04s3.24-6,7.75-6c3.21,0,6.04,1.24,7.81,3.4l-3.15,3.15c-1.18-1.37-2.86-2.25-4.67-2.25s-2.82.57-2.82,1.68c0,1.02,1.05,1.46,2.38,1.84l3.08.95c2.67.79,5.37,2.41,5.37,6.04,0,4.26-3.56,6.42-8.04,6.42-3.75,0-6.54-1.08-8.64-3.75h-.02Z"/>
      <path class="cls-9" d="M110.42,241.66c0-5.85,4.22-10.61,10.77-10.61,3.81,0,6.92,1.72,8.86,4.73l-4.32,2.44c-.95-1.56-2.57-2.57-4.57-2.57-3.34,0-5.72,2.79-5.72,6s2.38,6,5.78,6c1.97,0,3.62-1.02,4.57-2.57l4.32,2.44c-1.97,3.01-5.05,4.73-8.86,4.73-6.61,0-10.83-4.76-10.83-10.61h0Z"/>
    </g>
  </g>
</svg>