<?xml version="1.0" encoding="UTF-8"?>
<svg id="Layer_1" data-name="Layer 1" xmlns="http://www.w3.org/2000/svg" viewBox="0 0 128 128">
  <defs>
    <style>
      .cls-1 {
        fill: #fff;
      }
    </style>
  </defs>
  <path class="cls-1" d="M50.81,106.88c-13.16-1.93-24.85-6.66-33.7-13.26,5.32-2.42,10.94-4.38,16.72-5.9,4.01,6.71,9.7,13.13,16.98,19.16Z"/>
  <path class="cls-1" d="M61.43,83.94v23.85l-1-.04c-9.36-6.62-16.5-13.78-21.31-21.28,7.27-1.53,14.78-2.38,22.31-2.53Z"/>
  <path class="cls-1" d="M89.73,86.66c-4.81,7.42-11.93,14.5-21.23,21.05-.64.03-1.29.05-1.93.08v-23.85c7.81.15,15.61,1.07,23.16,2.72Z"/>
  <path class="cls-1" d="M110.87,93.6c-8.78,6.54-20.14,11.09-32.57,13.08,7.13-5.9,12.71-12.18,16.69-18.74,5.49,1.48,10.81,3.37,15.87,5.65Z"/>
  <path class="cls-1" d="M128,65.82c-.67,8.11-4.49,15.87-11.16,22.62-.53.53-1.05,1.04-1.61,1.54-5.62-2.71-11.57-4.93-17.72-6.66,2.74-5.68,4.31-11.54,4.65-17.5h25.83Z"/>
  <path class="cls-1" d="M97.02,65.82c-.36,5.49-1.91,10.91-4.6,16.19-8.39-1.95-17.11-3.02-25.84-3.19v-13.01h30.44Z"/>
  <path class="cls-1" d="M61.43,65.82v13.01c-8.44.17-16.85,1.16-24.98,2.99-2.62-5.22-4.14-10.58-4.51-16h29.49Z"/>
  <path class="cls-1" d="M31.34,83.08c-6.48,1.76-12.71,4.06-18.61,6.91-7.36-6.81-11.99-15.14-12.74-24.17h26.78c.35,5.87,1.89,11.66,4.56,17.26Z"/>
  <path class="cls-1" d="M30.71,44.65c-2.3,5.22-3.64,10.58-3.95,16.03H0c.67-8.11,4.49-15.88,11.16-22.62.21-.21.41-.41.62-.62,5.98,2.97,12.34,5.37,18.94,7.21Z"/>
  <path class="cls-1" d="M61.43,49.08v11.59h-29.51c.32-4.99,1.62-9.92,3.86-14.73,8.34,1.91,16.98,2.97,25.65,3.14Z"/>
  <path class="cls-1" d="M97,60.68h-30.43v-11.59c8.93-.18,17.84-1.29,26.42-3.33,2.31,4.87,3.66,9.87,4.01,14.92Z"/>
  <path class="cls-1" d="M127.99,60.68h-25.83c-.33-5.53-1.71-10.95-4.11-16.23,6.32-1.81,12.41-4.14,18.16-6.99,6.81,6.64,11.08,14.61,11.78,23.22Z"/>
  <path class="cls-1" d="M112,33.78c-5.2,2.44-10.68,4.43-16.35,6-4.05-7.02-9.92-13.74-17.56-20.02,13.34,2.11,25.12,7.12,33.9,14.02Z"/>
  <path class="cls-1" d="M90.45,41.09c-7.78,1.75-15.81,2.71-23.88,2.88v-25.28c.58.03,1.16.04,1.72.06,9.88,6.93,17.31,14.44,22.16,22.34Z"/>
  <path class="cls-1" d="M61.43,18.69v25.28c-7.81-.15-15.61-1.07-23.16-2.72,4.77-7.94,12.14-15.52,21.98-22.5.4-.03.78-.04,1.18-.05Z"/>
  <path class="cls-1" d="M50.62,19.64c-7.66,6.39-13.55,13.21-17.57,20.33-5.92-1.59-11.66-3.66-17.08-6.21,9.12-7.18,21.31-12.13,34.65-14.12Z"/>
</svg>