<?xml version="1.0" encoding="UTF-8"?>
<svg id="Layer_1" data-name="Layer 1" xmlns="http://www.w3.org/2000/svg" viewBox="0 0 108.76 78.38">
  <defs>
    <style>
      .cls-1 {
        fill: none;
        stroke: #fff;
        stroke-width: 2px;
      }
    </style>
  </defs>
  <path id="path3822" class="cls-1" d="M58.69,2.81c31.26,21.8,31.26,51.06,0,72.86M14.21,62.37c24.04-12.13,56.31-12.13,80.35,0M50.97,2.46c-31.48,21.95-31.48,51.42,0,73.36M54.11,2.5C25.46,2.6,2.35,19.11,2.5,39.38c.15,20.26,23.49,36.6,52.15,36.5,28.65-.1,51.76-16.61,51.61-36.88-.15-20.12-23.17-36.4-51.61-36.5h-.53ZM54.38,2.5v73.38M106.26,39.19H2.5M14.21,17.11c24.04,12.13,56.31,12.13,80.35,0"/>
</svg>