<?xml version="1.0" encoding="UTF-8"?>
<svg id="Layer_1" data-name="Layer 1" xmlns="http://www.w3.org/2000/svg" viewBox="0 0 200 200">
  <defs>
    <style>
      .cls-1 {
        fill: #fff;
      }
    </style>
  </defs>
  <path class="cls-1" d="M164.58,7.5c16.77,0,30.42,13.64,30.42,30.42v124.17c0,16.77-13.64,30.42-30.42,30.42H35.42c-16.77,0-30.42-13.64-30.42-30.42V37.92c0-16.77,13.64-30.42,30.42-30.42h129.17M164.58,2.5H35.42C15.83,2.5,0,18.33,0,37.92v124.17c0,19.58,15.83,35.42,35.42,35.42h129.17c19.58,0,35.42-15.83,35.42-35.42V37.92c0-19.58-15.83-35.42-35.42-35.42h0Z"/>
  <path class="cls-1" d="M96.67,119.17h-31l-6.33,19.58c-.17.75-.83,1.25-1.58,1.17h-15.67c-.92,0-1.17-.5-.92-1.5l26.83-77.25c.25-.83.5-1.75.83-2.75.33-1.75.5-3.58.5-5.42-.08-.42.25-.83.67-.92h21.58c.67,0,1,.25,1.08.67l30.42,85.83c.25.92,0,1.33-.83,1.33h-17.42c-.58.08-1.17-.33-1.33-.92l-6.83-19.83ZM70.5,102.25h21.17c-.5-1.75-1.17-3.83-1.92-6-.75-2.25-1.5-4.67-2.25-7.17-.83-2.58-1.58-5.08-2.42-7.67s-1.58-5-2.25-7.42c-.67-2.33-1.25-4.5-1.83-6.5h-.17c-.75,3.58-1.67,7.17-2.83,10.75-1.25,4-2.5,8.17-3.83,12.33-1.17,4.25-2.42,8.17-3.67,11.67ZM141.67,66.67c-2.75.08-5.42-1-7.42-2.92-1.92-2.08-2.92-4.83-2.83-7.67-.08-2.83,1-5.5,3-7.42s4.67-2.92,7.42-2.92c3.25,0,5.75,1,7.58,2.92,1.83,2,2.83,4.67,2.75,7.42.08,2.83-.92,5.58-2.92,7.67-1.92,2-4.75,3.08-7.58,2.92h0ZM132.33,139v-64.17c0-.83.33-1.17,1.08-1.17h16.5c.75,0,1.08.42,1.08,1.17v64.17c0,.92-.33,1.33-1.08,1.33h-16.33c-.83,0-1.25-.5-1.25-1.33Z"/>
</svg>